<svg xmlns="http://www.w3.org/2000/svg" xmlns:xlink="http://www.w3.org/1999/xlink" version="1.1" x="0px" y="0px" viewBox="0 0 91 113.75" enable-background="new 0 0 91 91" xml:space="preserve"><g><path d="M79.057,35.039C49.334,32.324,47.119,30.141,44.379,0.68c-2.744,29.461-4.961,31.645-34.697,34.359   C39.418,37.74,41.635,39.953,44.379,69.4C47.119,39.953,49.334,37.74,79.057,35.039z"/><path d="M32.119,64.867c-1.047,11.217-1.895,12.055-13.215,13.092c11.32,1.021,12.168,1.879,13.215,13.107   c1.029-11.229,1.877-12.086,13.211-13.107C33.996,76.922,33.148,76.084,32.119,64.867z"/><path d="M73.203,60.488c0.682-7.289,1.234-7.826,8.594-8.514c-7.359-0.67-7.912-1.205-8.594-8.496   c-0.676,7.291-1.23,7.826-8.59,8.496C71.973,52.662,72.527,53.199,73.203,60.488z"/></g></svg>

