<svg xmlns="http://www.w3.org/2000/svg" viewBox="0 0 36 45" x="0px" y="0px"><title>Монтажная область 18</title><path d="M6.10805,11.01469A.64621.64621,0,0,0,7.27773,10.465L5.98344,7.71231a.6501.6501,0,0,0-.31-.31L4.16465,6.69289l1.50882-.70906a.65008.65008,0,0,0,.31-.31l.70945-1.50921L7.402,5.67386a.65008.65008,0,0,0,.31.31l1.50922.70906-1.50922.70946A.64621.64621,0,1,0,8.26166,8.572l2.753-1.29429a.6464.6464,0,0,0,0-1.16968l-2.542-1.19491-1.19491-2.542a.6464.6464,0,0,0-1.16968,0L4.91314,4.91314l-2.542,1.19491a.6464.6464,0,0,0,0,1.16968L4.91314,8.47264Z"/><path d="M33.62891,28.72227l-2.542-1.19491L29.892,24.98531a.64621.64621,0,1,0-1.16968.54974l1.2939,2.753a.65008.65008,0,0,0,.31.31l1.50921.70906-1.50921.70945a.65008.65008,0,0,0-.31.31l-.70906,1.50882-.70946-1.50882a.6501.6501,0,0,0-.31-.31l-1.50883-.70945,1.50883-.70906a.64621.64621,0,0,0-.54974-1.16968l-2.75264,1.2939a.6464.6464,0,0,0,0,1.16968l2.54205,1.19491,1.19491,2.542a.6464.6464,0,0,0,1.16968,0l1.19491-2.542,2.542-1.19491a.6464.6464,0,0,0,0-1.16968Z"/><path d="M7.56522,20.66746a5.49232,5.49232,0,1,0,7.76732,0A5.49939,5.49939,0,0,0,7.56522,20.66746Zm6.8532,6.85319a4.198,4.198,0,1,1,0-5.93907A4.20291,4.20291,0,0,1,14.41842,27.52065Z"/><path d="M10.76388,22.95238a.6467.6467,0,0,0-.91374-.00039,2.26118,2.26118,0,0,0,0,3.19826.64611.64611,0,1,0,.91334-.91413.96826.96826,0,0,1,0-1.37A.646.646,0,0,0,10.76388,22.95238Z"/><path d="M16.98846,29.51927a7.64929,7.64929,0,0,1-10.79365.28631,7.64939,7.64939,0,0,1,.28592-10.794.64639.64639,0,0,0-.91413-.91413,8.94242,8.94242,0,0,0-.28552,12.6219A8.4939,8.4939,0,0,0,11.3286,33.188a9.309,9.309,0,0,0,6.574-2.75461.64639.64639,0,0,0-.91413-.91413Z"/><path d="M7.50527,16.94351a.64681.64681,0,0,0,.90467.12935l9.13773-6.8532a.6462.6462,0,1,0-.77531-1.034L7.63462,16.03884A.64621.64621,0,0,0,7.50527,16.94351Z"/><path d="M15.56049,15.87085a.6474.6474,0,0,0,.91412,0l6.8532-6.8532a.64639.64639,0,0,0-.91413-.91413l-6.85319,6.8532A.64717.64717,0,0,0,15.56049,15.87085Z"/><path d="M20.58622,20.62841a.6459.6459,0,0,0,.45706-.1889l6.8532-6.85319a.64639.64639,0,0,0-.91413-.91413l-6.8532,6.8532a.646.646,0,0,0,.45707,1.103Z"/><path d="M17.61708,19.29705l3.4262-3.4262a.64639.64639,0,0,0-.91413-.91413l-3.4262,3.4262a.64639.64639,0,0,0,.91413.91413Z"/><path d="M26.685,18.323a.64669.64669,0,0,0-.90466.12935l-6.8532,9.13773a.6462.6462,0,1,0,1.034.77532l6.85319-9.13774A.64618.64618,0,0,0,26.685,18.323Z"/><path d="M13.7342,18.34033a.65285.65285,0,0,0,.46061-.18613.63986.63986,0,0,0,.18575-.46022.64617.64617,0,0,0-1.10658-.45234.65328.65328,0,0,0,0,.91256.67148.67148,0,0,0,.2102.13763A.6552.6552,0,0,0,13.7342,18.34033Z"/><path d="M18.952,22.2654a.6299.6299,0,0,0-.194-.45233.664.664,0,0,0-.91255,0,.62235.62235,0,0,0-.18574.45233.65862.65862,0,0,0,.0485.25042.59353.59353,0,0,0,.13724.2098.65324.65324,0,0,0,.91255,0,.61749.61749,0,0,0,.14552-.2098A.65844.65844,0,0,0,18.952,22.2654Z"/><path d="M22.86878,13.77679a.64784.64784,0,0,0,.46061-.19363.63557.63557,0,0,0,.18574-.45233.65393.65393,0,0,0-.18574-.46022.68083.68083,0,0,0-.91295,0,.66171.66171,0,0,0-.19363.46022.61606.61606,0,0,0,.04851.24214.55185.55185,0,0,0,.14512.21019A.64407.64407,0,0,0,22.86878,13.77679Z"/><path d="M25.15449,11.49108a.65833.65833,0,0,0,.25042-.04811.7061.7061,0,0,0,.21019-.14552.63558.63558,0,0,0,.18575-.45234.65392.65392,0,0,0-.18575-.46021.6822.6822,0,0,0-.92083,0,.68994.68994,0,0,0-.18574.46021.63557.63557,0,0,0,.18574.45234A.62785.62785,0,0,0,25.15449,11.49108Z"/><path d="M27.18979,9.15725a.65844.65844,0,0,0,.25042.04851A.63558.63558,0,0,0,27.89254,9.02a.7061.7061,0,0,0,.14552-.21019.66435.66435,0,0,0,.04811-.25042.62291.62291,0,0,0-.04811-.24214.6455.6455,0,0,0-.14552-.21808.68032.68032,0,0,0-.91255,0,.75225.75225,0,0,0-.13724.21808.61606.61606,0,0,0-.04851.24214A.63976.63976,0,0,0,26.98,9.02.86079.86079,0,0,0,27.18979,9.15725Z"/></svg>
