<svg xmlns="http://www.w3.org/2000/svg" version="1.1" viewBox="-5.0 -10.0 110.0 135.0">
 <path d="m55.461 49.773c0-3.8047-3.0938-6.8984-6.8984-6.8984s-6.8984 3.0938-6.8984 6.8984c0 3.8047 3.0938 6.8984 6.8984 6.8984 3.8047-0.003906 6.8984-3.0977 6.8984-6.8984zm-6.8984 5.2969c-2.9219 0-5.3008-2.3789-5.3008-5.3008s2.3789-5.3008 5.3008-5.3008 5.3008 2.3789 5.3008 5.3008c0 2.9258-2.3789 5.3008-5.3008 5.3008zm32.5-5.2461c2.3477-2.25 3.457-5.0391 3.293-8.2891-0.039063-0.78906-0.17969-1.5742-0.40234-2.3359l4.3281-2.3672-4.4375-2.4297-2.4297-4.4375-1.8438 3.375c-0.34766-0.22266-0.71094-0.42969-1.0859-0.60938l-0.28125-0.13672c0.003906-0.019531 0.011719-0.039062 0.015625-0.054688 0.5-1.7656 0.47656-3.5898-0.078125-5.4141-1.2695-4.2031-5.5391-7.0195-9.918-6.582-0.96875 0.10156-1.9297 0.34766-2.8633 0.73438-0.039063 0.015625-0.074219 0.03125-0.10938 0.046875-0.023438-0.035157-0.046875-0.070313-0.070312-0.10938-0.35938-0.54297-0.80469-1.1719-1.4102-1.7305-2.2617-2.0859-5.6523-2.6367-8.4375-1.3633-0.054687 0.023437-0.10938 0.054687-0.14844 0.078125-0.32031 0.1875-0.54688 0.23047-1-0.035157-2.5742-1.5039-6.0078-1.1641-8.3516 0.83203-1.3477 1.1445-2.2422 2.6602-2.5742 4.3203-1.2969-0.18359-2.6289-0.11328-3.918 0.21094l-0.94922-0.51953-2.4258-4.4375-2.4258 4.4375-4.4375 2.4297 2.4062 1.3164c-2.7422 2.207-4.1211 5.5117-3.7812 8.9219-2.2812-1.6211-5.2148-1.8359-7.8477-0.47656-2.7383 1.4141-4.3594 4.4609-3.9414 7.4102 0.074219 0.51562-0.054688 0.71484-0.34766 0.9375-0.046875 0.035156-0.089844 0.070313-0.12891 0.10938-2.2344 2.0938-3.0117 5.4414-1.9414 8.3242 0.28516 0.76953 0.69922 1.4219 1.0664 1.9648 0.027343 0.039063 0.050781 0.074219 0.074218 0.10547-0.027344 0.027344-0.054687 0.054688-0.085937 0.085938-0.70703 0.71094-1.3008 1.5078-1.7617 2.3672-2.082 3.8828-1.082 8.9023 2.3242 11.672 1.4805 1.2031 3.1562 1.918 4.9805 2.125 0.019531 0.003907 0.039062 0.003907 0.058593 0.007813l0.019531 0.3125c0.082032 1.4727 0.47266 2.8711 1.1562 4.1641 0.019532 0.035156 0.046876 0.054688 0.066407 0.085938l-4.1484 2.3047 4.4375 2.4297 2.4258 4.4375 2.4258-4.4375 0.15625-0.085938c2.8516 1.3008 5.3398 1.2969 8.3125-0.019531l0.125-0.054688c0.0625-0.027343 0.14453-0.066406 0.21484-0.09375 0.082031 0.078126 0.16797 0.18359 0.26562 0.30859 0.10938 0.13672 0.21875 0.27344 0.34375 0.39844 2.0273 2.0664 4.6484 3.1328 7.3203 3.1328 1.8398 0 3.707-0.50781 5.418-1.543 1.5156-0.91797 2.7227-2.1953 3.5898-3.8008 0.8125-1.5078 1.2266-3.1562 1.2344-4.8359 1.0117 0.58203 2.0391 0.88281 3.1562 0.88281 0.30469 0 0.61328-0.019531 0.93359-0.0625l0.027344-0.003906 1.0547 0.57812 2.4258 4.4375 2.4258-4.4375 4.4375-2.4297-2.5156-1.375c1.25-1.457 1.9062-3.3164 1.7656-5.1602-0.039062-0.52344 0.097656-0.71094 0.41406-0.92188l0.12891-0.09375c0.007812-0.007812 0.015625-0.015625 0.027343-0.023437 1.2812 0.55078 2.6641 0.84766 4.0625 0.84766 0.36328 0 0.73047-0.019531 1.0938-0.058594 1.8125-0.19141 3.457-0.82422 4.8789-1.875 3.9414-2.9141 5.293-7.8945 3.3633-12.391-0.070312-0.16016-0.15234-0.3125-0.23828-0.46875-0.078125-0.13672-0.14453-0.25391-0.18359-0.36328 0.050781-0.054688 0.12109-0.12109 0.17188-0.16797zm1.6016-14.238 2.2852 1.25-2.2852 1.25-1.25 2.2852-1.25-2.2852-2.2852-1.25 2.2852-1.25 0.70703-1.293 0.54297-0.99219zm-47.953-11.398 1.25-2.2852 1.2188 2.2266-0.046876 0.015625 2.3633 1.293-2.2852 1.25-1.25 2.2852-1.25-2.2852-2.2852-1.25zm-10.586 56.52-1.25-2.2852-2.2852-1.25 2.2852-1.25 1.25-2.2852 0.49219 0.89844 0.75781 1.3867 1.7266 0.94141 0.55859 0.30469-2.2852 1.25zm26.762-3.6289c-0.72656 1.3516-1.7422 2.4258-3.0078 3.1953-3.5469 2.1484-7.875 1.6094-10.77-1.3438-0.082031-0.085938-0.15625-0.17969-0.23047-0.27344-0.21875-0.27734-0.49219-0.625-0.94922-0.85156l-0.125-0.0625-0.13672-0.015626c-0.066407-0.007812-0.13281-0.011718-0.19531-0.011718-0.40625 0-0.74219 0.15234-0.99219 0.26953l-0.10547 0.046875c-2.0664 0.91406-3.793 1.0938-5.6641 0.53516l1.0352-0.71484 1.2461-0.68359-0.14453-0.078125-1.1211-0.61328-3.1719-1.7344-1.3906-2.5469-0.96094-1.7578-0.074219-0.13672-0.67969 1.2461-1.0938 1.6094c-0.32812-0.83594-0.51953-1.7148-0.57031-2.6328l-0.0625-1.0586-0.15234-0.19531c-0.39453-0.50781-0.92578-0.53906-1.1797-0.55078l-0.097656-0.007812c-1.5156-0.17188-2.9141-0.76953-4.1523-1.7773-2.8242-2.2969-3.6484-6.457-1.9219-9.6758 0.38672-0.72266 0.88672-1.3945 1.4883-2 0.81641-0.82031 0.85547-1.2539 0.19922-2.2148-0.3125-0.46094-0.66406-1.0117-0.89062-1.6211-0.83594-2.2539-0.20703-4.9688 1.5391-6.6016 0.79687-0.60547 1.1094-1.3984 0.96484-2.4336-0.31641-2.2539 0.98047-4.6797 3.0898-5.7656 2.4844-1.2812 5.3008-0.80078 7.1797 1.2227 0.28516 0.30859 0.52344 0.69531 0.77734 1.1094l0.0625 0.10156c-0.050781 0.046874-0.11328 0.097656-0.16016 0.13672l-0.10547 0.085938c-2.4961 2.0859-3.793 4.793-3.8516 8.043-0.042969 2.2578 0.64062 4.3828 2.0352 6.3086 0.85547 1.1836 1.9414 2.1523 3.2266 2.8789l0.26953 0.15234c-0.007813 0.019532-0.011719 0.035156-0.019531 0.054688-0.62109 1.7305-0.71875 3.5508-0.29297 5.4102 0.98047 4.2812 5.0234 7.4141 9.4453 7.2422 0.97266-0.03125 1.9492-0.21094 2.9062-0.53516 0.039063-0.011719 0.074219-0.027343 0.10938-0.039062 0.019532 0.035156 0.039063 0.074219 0.0625 0.11328 0.32031 0.56641 0.72656 1.2266 1.2891 1.8242 1.5859 1.6797 3.8633 2.5352 6.1133 2.4023 0.75-0.042968 1.4961-0.19922 2.2148-0.46875 0.023437-0.007812 0.046875-0.019531 0.066406-0.027343 0.050781 1.5391-0.30469 3.0625-1.0508 4.4414zm11.492-3.8594-1.25 2.2852-1.25-2.2852-2.2852-1.25 2.2852-1.25 1.25-2.2852 1.25 2.2852 2.2852 1.25zm3.2695-7.6641c0.11719 1.5039-0.49219 3.0898-1.6055 4.2539l-0.48828-0.26562-2.4258-4.4375-2.4258 4.4375-4.1016 2.2422c-0.23047-0.11719-0.46094-0.25391-0.69531-0.41016-0.17578-0.12109-0.35156-0.21094-0.52734-0.28906l-0.011718-0.082032-0.58984-0.09375c-0.12109-0.019531-0.23828-0.027344-0.35938-0.027344h-0.003907c-0.16797 0-0.33203 0.023438-0.5 0.0625-0.039062 0.007813-0.078124 0.019532-0.11719 0.03125-0.16797 0.046876-0.33203 0.10547-0.5 0.19141-2.2344 0.83984-4.9492 0.20703-6.6016-1.5391-0.44531-0.47266-0.78516-1.0312-1.0625-1.5117-0.57422-1.0156-0.98047-1.1719-2.0781-0.80078-0.80469 0.27344-1.6289 0.42188-2.4453 0.44922-3.6562 0.10547-7.0195-2.4531-7.832-6-0.35547-1.5547-0.27734-3.0742 0.23828-4.5117l0.035156-0.089844c0.097657-0.23437 0.30469-0.72266 0.023438-1.3008l-0.10938-0.22266-0.92188-0.52344c-1.082-0.61328-1.9961-1.4297-2.7148-2.4219-1.1875-1.6406-1.7695-3.4375-1.7344-5.3438 0.050781-2.8086 1.125-5.0469 3.2812-6.8477l0.089844-0.074218c0.25-0.20313 0.58984-0.48047 0.75391-0.95313l0.046875-0.12891v-0.13672c0-0.27734-0.066406-0.50781-0.11328-0.66406-0.0625-0.19531-0.14453-0.37891-0.23047-0.5625-0.050781-0.10938-0.10156-0.21875-0.14453-0.33203-1.3281-3.793-0.019532-7.7891 3.2539-10.055l0.5 0.27344 2.4258 4.4375 2.4258-4.4375 4.4375-2.4297-1.1641-0.63672c0.69922-0.015626 1.4062 0.054687 2.0898 0.21484 0.14062 0.03125 0.27734 0.074219 0.41797 0.11328 0.097657 0.027344 0.19922 0.054688 0.29688 0.085938 0.11328 0.035156 0.21875 0.078125 0.32812 0.11719 0.10547 0.039062 0.21094 0.074218 0.31641 0.11719 0.097656 0.039063 0.19531 0.089844 0.29297 0.13281 0.10937 0.050781 0.21875 0.097656 0.32812 0.15234 0.089844 0.046875 0.17578 0.097657 0.26563 0.14453 0.10937 0.0625 0.22266 0.12109 0.32812 0.18359 0.085938 0.050782 0.16797 0.10938 0.25 0.16797 0.10547 0.070313 0.21094 0.13672 0.3125 0.21094 0.089844 0.0625 0.17188 0.13281 0.25781 0.20313 0.09375 0.074218 0.1875 0.14062 0.27734 0.21875 0.10156 0.085937 0.19922 0.17969 0.29688 0.27344 0.070312 0.066406 0.14062 0.125 0.20703 0.19141 0.16406 0.16406 0.32031 0.33203 0.47266 0.50781 0.078125 0.089844 0.14453 0.1875 0.21094 0.28516 0.20312 0.29297 0.45312 0.65625 0.89453 0.91016l0.11719 0.070313 0.13281 0.027343c0.49609 0.097657 0.90234-0.0625 1.2031-0.17969l0.11328-0.042969c2.6328-0.97266 5.1133-0.78906 7.5742 0.56641 1.668 0.91797 2.9375 2.3164 3.7695 4.1641 0.50391 1.1211 0.75781 2.3164 0.75 3.5625l-0.003906 1.0625 0.14062 0.20703c0.36328 0.53125 0.88672 0.59375 1.1406 0.625l0.097656 0.011719c1.5039 0.26953 2.8594 0.95312 4.0312 2.0391 2.6719 2.4727 3.2344 6.6758 1.3047 9.7812-0.43359 0.69922-0.97656 1.3359-1.6133 1.9023-0.86328 0.76562-0.92969 1.1953-0.33594 2.1992 0.28125 0.47656 0.59375 1.0469 0.78516 1.6758 0.48047 1.5898 0.23438 3.3711-0.58984 4.8242-0.035157 0.0625-0.078126 0.12109-0.11719 0.18359-0.10156 0.16797-0.20703 0.33203-0.32812 0.48828-0.074219 0.10156-0.16406 0.19141-0.24609 0.28906-0.11719 0.13281-0.22656 0.27344-0.35547 0.39453l-0.13281 0.13281c-0.058594 0.0625-0.12109 0.125-0.1875 0.17969-0.81641 0.53516-1.1797 1.3125-1.1016 2.3555zm13.508-15.527c0.039062 0.50781 0.25391 0.89453 0.42578 1.2031 0.058594 0.10547 0.11719 0.20703 0.16406 0.31641 1.6289 3.8008 0.48828 8.0078-2.8438 10.473-1.1914 0.88281-2.5703 1.4102-4.0977 1.5703-1.2969 0.13672-2.6094-0.015625-3.8281-0.44531 0.16406-0.21875 0.3125-0.44531 0.45313-0.67969 0.10547-0.17578 0.19531-0.35547 0.28516-0.53516 0.066406-0.13672 0.14062-0.26953 0.20312-0.41016 0.074219-0.17578 0.13672-0.35547 0.19922-0.53516 0.042968-0.125 0.089843-0.25 0.12891-0.37891 0.054687-0.18359 0.097656-0.36719 0.13672-0.55078 0.027344-0.13281 0.054688-0.26953 0.078126-0.40234 0.027343-0.17969 0.050781-0.35938 0.070312-0.53906 0.015625-0.15234 0.019531-0.30859 0.027344-0.46094 0.003906-0.16406 0.011718-0.32812 0.003906-0.49219-0.003906-0.19141-0.027344-0.38281-0.046875-0.57422-0.015625-0.12891-0.019531-0.26172-0.042969-0.39063-0.050781-0.32422-0.12109-0.64453-0.21484-0.96094-0.23828-0.78906-0.60937-1.4688-0.94141-2.0273-0.023437-0.039062-0.046875-0.078125-0.066406-0.11328 0.027344-0.023438 0.058594-0.050781 0.089844-0.078125l0.003906-0.003906c0.75-0.66406 1.3906-1.4219 1.9062-2.25 2.3242-3.7422 1.6445-8.8125-1.5781-11.797-1.3984-1.2969-3.0273-2.1172-4.8359-2.4375-0.019532-0.003906-0.039063-0.007813-0.058594-0.007813v-0.3125c0.007812-1.4766-0.28906-2.8984-0.89062-4.2305-0.97656-2.168-2.4766-3.8203-4.457-4.9062-2.8516-1.5664-5.8438-1.7891-8.8945-0.66406l-0.13281 0.050781c-0.0625 0.023438-0.14844 0.058594-0.22266 0.078125-0.078126-0.085937-0.15625-0.19531-0.24609-0.32422-0.10156-0.14453-0.20312-0.28906-0.31641-0.42188-0.17188-0.19922-0.35156-0.39062-0.53516-0.57422-0.066406-0.066406-0.13672-0.125-0.20312-0.19141-0.12109-0.11328-0.24219-0.23047-0.36719-0.33594-0.082031-0.074219-0.17188-0.14062-0.25781-0.21094-0.11328-0.09375-0.22656-0.18359-0.34766-0.26953-0.09375-0.070312-0.19141-0.13672-0.28906-0.20312-0.11328-0.078125-0.23047-0.15625-0.34375-0.22656-0.10156-0.066406-0.20703-0.12891-0.3125-0.1875-0.11719-0.066406-0.23438-0.13281-0.35547-0.19531-0.10938-0.058593-0.21484-0.11328-0.32422-0.16797-0.125-0.0625-0.25391-0.11719-0.37891-0.17187-0.10547-0.046876-0.21484-0.09375-0.32031-0.13672-0.14453-0.058594-0.29688-0.10938-0.44531-0.16016-0.09375-0.03125-0.18359-0.066406-0.28125-0.097656-0.015625-0.003906-0.027344-0.011718-0.042969-0.015625 0.25391-1.3281 0.95703-2.5039 2.0469-3.4336 1.8086-1.5391 4.5469-1.8203 6.5078-0.67188 0.90234 0.52734 1.7578 0.53906 2.6211 0.03125 2.1719-0.99219 4.9258-0.54687 6.6914 1.0859 0.48047 0.44141 0.85547 0.97656 1.1602 1.4375 0.64062 0.97266 1.0586 1.1055 2.1289 0.65625 0.78516-0.32422 1.5938-0.53125 2.4102-0.61719 3.6328-0.375 7.1719 1.9688 8.2227 5.4531 0.46094 1.5273 0.48438 3.0469 0.070313 4.5156l-0.03125 0.09375c-0.082031 0.24219-0.25391 0.73828 0.0625 1.3008l0.125 0.21875 0.95703 0.46094c0.28125 0.13281 0.55078 0.28125 0.8125 0.44141l-2.5547 1.3984-1.5 0.82031 4.4375 2.4297 1.0078 1.8438 0.59766 1.0977v0.003907l0.82031 1.4961 0.99609-1.8242 0.32422-0.59375c0.007813 0.10938 0.015626 0.22266 0.023438 0.33203 0.14062 2.8047-0.77734 5.1133-2.8047 7.0547l-0.082031 0.078125c-0.23438 0.21875-0.55859 0.52344-0.69141 1.0078l-0.035156 0.13281zm-39.445-13.992c-1.2422 0-2.25 1.0117-2.25 2.25 0 1.2422 1.0117 2.25 2.25 2.25 1.2422 0 2.25-1.0117 2.25-2.25 0-1.2422-1.0078-2.25-2.25-2.25zm0 2.9023c-0.35938 0-0.65234-0.29297-0.65234-0.65234s0.29297-0.65234 0.65234-0.65234c0.35937 0 0.65234 0.29297 0.65234 0.65234s-0.29297 0.65234-0.65234 0.65234zm-17.461 19.453c-1.4727 0-2.6719 1.1992-2.6719 2.6719s1.1992 2.6719 2.6719 2.6719 2.6719-1.1992 2.6719-2.6719c0.003906-1.4727-1.1953-2.6719-2.6719-2.6719zm0 3.7461c-0.59375 0-1.0742-0.48047-1.0742-1.0742s0.48047-1.0742 1.0742-1.0742 1.0742 0.48047 1.0742 1.0742-0.48047 1.0742-1.0742 1.0742zm48.703-35.414c-1.3359 0-2.4219 1.0859-2.4219 2.4219 0 1.3359 1.0859 2.4219 2.4219 2.4219s2.4219-1.0859 2.4219-2.4219c0-1.3359-1.0859-2.4219-2.4219-2.4219zm0 3.2461c-0.45312 0-0.82422-0.37109-0.82422-0.82422s0.37109-0.82422 0.82422-0.82422 0.82422 0.37109 0.82422 0.82422c0 0.45703-0.37109 0.82422-0.82422 0.82422zm-15.445 31.219c-1.3281 0-2.4102 1.082-2.4102 2.4102s1.082 2.4102 2.4102 2.4102c1.3281 0 2.4102-1.082 2.4102-2.4102 0-1.332-1.082-2.4102-2.4102-2.4102zm0 3.2188c-0.44531 0-0.8125-0.36328-0.8125-0.8125 0-0.44531 0.36328-0.8125 0.8125-0.8125 0.44922 0 0.8125 0.36328 0.8125 0.8125s-0.36719 0.8125-0.8125 0.8125zm5.6289-22.699c-1.2109 0-2.1992 0.98438-2.1992 2.1992 0 1.2109 0.98438 2.1992 2.1992 2.1992 1.2109 0 2.1992-0.98438 2.1992-2.1992 0-1.2109-0.98828-2.1992-2.1992-2.1992zm0 2.7969c-0.33203 0-0.59766-0.26953-0.59766-0.59766 0-0.33203 0.26953-0.59766 0.59766-0.59766 0.33203 0 0.59766 0.26953 0.59766 0.59766 0 0.33203-0.26562 0.59766-0.59766 0.59766zm-39.227-16.645c1.2852 0 2.332-1.0469 2.332-2.332s-1.0469-2.332-2.332-2.332-2.3281 1.0469-2.3281 2.332c-0.003906 1.2852 1.043 2.332 2.3281 2.332zm0-3.0625c0.40234 0 0.73047 0.32812 0.73047 0.73047s-0.32812 0.73047-0.73047 0.73047-0.73047-0.32812-0.73047-0.73047c-0.003907-0.40234 0.32422-0.73047 0.73047-0.73047zm34.648 53.449c-1.4883 0-2.6953 1.2109-2.6953 2.6953 0 1.4883 1.2109 2.6953 2.6953 2.6953 1.4883 0 2.6953-1.2109 2.6953-2.6953 0.003906-1.4844-1.207-2.6953-2.6953-2.6953zm0 3.7969c-0.60547 0-1.0977-0.49219-1.0977-1.0977 0-0.60547 0.49219-1.0977 1.0977-1.0977 0.60547 0 1.0977 0.49219 1.0977 1.0977 0 0.60547-0.49219 1.0977-1.0977 1.0977zm11.52-64.609c1.1289 0 2.0469-0.91797 2.0469-2.0469 0-1.1289-0.91797-2.0469-2.0469-2.0469s-2.0469 0.91797-2.0469 2.0469c0 1.1289 0.91797 2.0469 2.0469 2.0469zm0-2.4961c0.25 0 0.44922 0.20312 0.44922 0.44922 0 0.25-0.20312 0.44922-0.44922 0.44922-0.25 0-0.44922-0.20313-0.44922-0.44922 0-0.25 0.20312-0.44922 0.44922-0.44922zm-27.578 43.801c0 0.44141-0.35938 0.80078-0.80078 0.80078h-0.84766c-0.44141 0-0.80078 0.35938-0.80078 0.80078v0.84766c0 0.44141-0.35938 0.80078-0.80078 0.80078s-0.80078-0.35938-0.80078-0.80078l0.007812-0.85156c0-0.44141-0.35938-0.80078-0.80078-0.80078h-0.84766c-0.44141 0-0.80078-0.35938-0.80078-0.80078s0.35938-0.80078 0.80078-0.80078h0.84766c0.44141 0 0.80078-0.35938 0.80078-0.80078v-0.84766c0-0.44141 0.35938-0.80078 0.80078-0.80078 0.44141 0 0.80078 0.35938 0.80078 0.80078v0.84766c0 0.44141 0.35938 0.80078 0.80078 0.80078h0.84766c0.4375 0.007812 0.79297 0.36328 0.79297 0.80469zm1.9648-45.352c0-0.44141 0.35938-0.80078 0.80078-0.80078h0.84766c0.44141 0 0.80078-0.35938 0.80078-0.80078v-0.84766c0-0.44141 0.35938-0.80078 0.80078-0.80078s0.80078 0.35938 0.80078 0.80078v0.84766c0 0.44141 0.35938 0.80078 0.80078 0.80078h0.84766c0.44141 0 0.80078 0.35937 0.80078 0.80078 0 0.44141-0.35938 0.80078-0.80078 0.80078h-0.84766c-0.44141 0-0.80078 0.35938-0.80078 0.80078v0.84766c0 0.44141-0.35938 0.80078-0.80078 0.80078s-0.80078-0.35938-0.80078-0.80078v-0.84766c0-0.44141-0.35937-0.80078-0.80078-0.80078h-0.84766c-0.44531 0-0.80078-0.35938-0.80078-0.80078zm-3.2578 73.227c0 0.44141-0.35938 0.80078-0.80078 0.80078h-0.84766c-0.44141 0-0.80078 0.35938-0.80078 0.80078v0.84766c0 0.44141-0.35937 0.80078-0.80078 0.80078-0.44141 0-0.80078-0.35938-0.80078-0.80078v-0.84766c0-0.44141-0.35938-0.80078-0.80078-0.80078h-0.84766c-0.44141 0-0.80078-0.35937-0.80078-0.80078 0-0.44141 0.35938-0.80078 0.80078-0.80078h0.84766c0.44141 0 0.80078-0.35938 0.80078-0.80078v-0.84766c0-0.44141 0.35938-0.80078 0.80078-0.80078 0.44141 0 0.80078 0.35938 0.80078 0.80078v0.84766c0 0.44141 0.35938 0.80078 0.80078 0.80078h0.84766c0.44531 0 0.80078 0.35938 0.80078 0.80078z"/>
</svg>
