<svg xmlns="http://www.w3.org/2000/svg" xmlns:xlink="http://www.w3.org/1999/xlink" version="1.1" x="0px" y="0px" viewBox="0 0 100 125" style="enable-background:new 0 0 100 100;" xml:space="preserve"><path d="M94.08,47.42c-5.7-0.55-11.41-1.11-17.05-2.15c-3.77-0.69-7.54-1.58-10.95-3.38c-6.33-3.34-8.8-9.98-10.19-16.68  c-1.28-6.18-1.87-12.5-2.48-18.77c-0.15-1.54-4.79-0.39-4.93,0.99c-0.89,9.02-2.65,18.63-8.06,26.14  c-4.21,5.85-10.36,9.22-16.75,11.09c-4.62,1.36-9.19,2.11-13.98,2.75c-0.15,0.02-0.33,0.06-0.53,0.1c-0.1,0.02-0.2,0.05-0.3,0.07  C8,47.82,7.01,48.28,6.87,49.04c-0.06,0.31,0.05,0.51,0.23,0.67c0.15,0.15,0.37,0.26,0.7,0.3c0.05,0.01,0.11,0.01,0.16,0.02  c0.02,0,0.03,0,0.05,0c5.63,0.55,11.28,1.11,16.84,2.13c3.77,0.69,7.54,1.58,10.95,3.38c6.33,3.34,8.8,9.98,10.19,16.68  c1.28,6.18,1.87,12.5,2.48,18.77c0.15,1.54,4.8,0.39,4.93-0.99c0.55-5.65,1.11-11.32,2.12-16.91c0.68-3.74,1.54-7.6,3.28-11.02  c0.69-1.37,1.56-2.65,2.58-3.81c0.29-0.33,0.89-0.92,1.47-1.39c0.28-0.23,0.56-0.45,0.85-0.66c0.03-0.02,0.05-0.03,0.06-0.05  c0.02-0.01,0.05-0.03,0.09-0.06c0.18-0.12,0.36-0.24,0.54-0.35c0.32-0.2,0.65-0.39,0.98-0.57c0.17-0.09,0.34-0.18,0.5-0.27  c0.08-0.04,0.16-0.08,0.25-0.12c0.79-0.36,1.59-0.68,2.4-0.98c0.08-0.03,0.12-0.05,0.16-0.06c0,0,0.01,0,0.03-0.01  c0.25-0.08,0.5-0.16,0.75-0.24c0.48-0.15,0.97-0.29,1.46-0.42c1.01-0.27,2.03-0.5,3.05-0.72c0.37-0.08,0.01-0.01,0.51-0.1  c0.32-0.06,0.63-0.12,0.95-0.18c0.66-0.12,1.32-0.23,1.98-0.34c1.43-0.23,2.87-0.43,4.3-0.61c3.49-0.45,6.99-0.81,10.49-1.15  c0.82-0.08,2.17-0.51,2.64-1.28C95.23,48.08,94.83,47.49,94.08,47.42z M75.32,49.66c-4.36,0.83-8.69,1.93-12.64,4  c-6.94,3.63-10.03,10.35-11.61,17.71c-0.01,0.04-0.02,0.08-0.03,0.13c-0.71-3.62-1.66-7.28-3.44-10.53  c-3.66-6.71-10.44-9.45-17.6-10.98c-3.56-0.76-7.16-1.27-10.78-1.7c5.42-1.17,10.71-2.86,15.53-5.6  c7.15-4.07,12.12-10.5,14.95-18.17c0.21-0.57,0.4-1.14,0.59-1.72c0.13,0.8,0.25,1.61,0.4,2.41c0.73,3.85,1.69,7.78,3.58,11.24  c3.66,6.71,10.44,9.45,17.6,10.98c2.78,0.59,5.6,1.04,8.42,1.4C78.63,49.08,76.97,49.35,75.32,49.66z M69.99,20.44  c1.72,0.17,3.47,0.32,5.16,0.72c0.8,0.19,1.74,0.53,2.4,1.21c1.74,1.8,1.77,5.48,2.01,7.96c0.15,1.54,4.79,0.39,4.93-0.99  c0.16-1.66,0.31-3.35,0.68-4.98c0.26-1.17,0.51-1.94,1.17-2.74c0.01-0.01,0.01-0.01,0.02-0.02c0.07-0.06,0.14-0.12,0.21-0.18  c0.11-0.06,0.23-0.13,0.34-0.19c-0.41,0.24-0.17,0.13,0.07,0.02c-0.3,0.15,0.41-0.14,0.62-0.19c0.06-0.01,0.12-0.03,0.18-0.04  c-0.02,0.01,0.33-0.07,0.41-0.08c0.37-0.06,0.73-0.12,1.1-0.17c0.96-0.13,1.93-0.23,2.9-0.32c0.84-0.08,2.15-0.51,2.64-1.28  c0.41-0.64-0.03-1.24-0.76-1.31c-1.72-0.17-3.47-0.32-5.16-0.72c-0.8-0.19-1.74-0.53-2.4-1.21c-1.74-1.8-1.77-5.48-2.01-7.96  c-0.15-1.54-4.79-0.39-4.93,0.99c-0.15,1.48-0.29,2.97-0.57,4.44c-0.18,0.94-0.46,2.08-0.87,2.72c-0.11,0.17-0.22,0.32-0.34,0.48  c-0.26,0.33,0.07-0.15-0.18,0.18c-0.03,0.04-0.04,0.06-0.05,0.08c-0.02,0.01-0.05,0.02-0.09,0.04c-0.45,0.2,0.38-0.14-0.22,0.12  c-0.07,0.03-0.12,0.05-0.15,0.07c-0.01,0-0.02,0-0.03,0.01c-0.25,0.06-0.51,0.13-0.76,0.2c-0.03,0.01-0.03,0.01-0.05,0.01  c-0.01,0-0.01,0-0.01,0c-0.15,0.03-0.3,0.05-0.45,0.08c-0.37,0.06-0.73,0.11-1.1,0.16c-0.35,0.05-0.86,0.16-1.35,0.34  c-0.09-0.01-0.2-0.02-0.29-0.03c-1.19-0.12-2.56,0.12-3.49,0.93C68.84,19.4,68.91,20.33,69.99,20.44z M87.03,21.23  c0.06-0.03,0.12-0.06,0.17-0.08C87.12,21.18,87.07,21.2,87.03,21.23z M81.61,17.42c0.13,0.17,0.25,0.34,0.41,0.49  c0.74,0.72,1.67,1.19,2.68,1.54c-0.81,0.37-1.56,0.84-2.23,1.43c-0.13-0.17-0.25-0.34-0.41-0.49c-0.75-0.73-1.7-1.21-2.72-1.55  C80.16,18.47,80.94,18.02,81.61,17.42z M29.99,81.09c-1.72-0.17-3.47-0.32-5.16-0.72c-0.8-0.19-1.74-0.53-2.4-1.21  c-1.74-1.8-1.77-5.48-2.01-7.96c-0.15-1.54-4.79-0.39-4.93,0.99c-0.15,1.48-0.29,2.97-0.57,4.44c-0.18,0.94-0.46,2.08-0.87,2.72  c-0.11,0.17-0.22,0.32-0.34,0.48c-0.26,0.33,0.07-0.15-0.18,0.18c-0.03,0.04-0.04,0.06-0.05,0.08c-0.02,0.01-0.05,0.02-0.09,0.04  c-0.45,0.2,0.38-0.14-0.22,0.12c-0.07,0.03-0.12,0.05-0.15,0.07c-0.01,0-0.02,0-0.03,0.01c-0.25,0.06-0.51,0.13-0.76,0.2  c-0.03,0.01-0.04,0.01-0.05,0.02c-0.01,0-0.01,0-0.01,0c-0.15,0.03-0.3,0.05-0.45,0.08c-0.37,0.06-0.73,0.11-1.1,0.16  c-0.35,0.05-0.86,0.16-1.35,0.34c-0.09-0.01-0.2-0.02-0.29-0.03c-1.19-0.12-2.56,0.12-3.49,0.93c-0.71,0.62-0.64,1.54,0.44,1.65  c1.72,0.17,3.47,0.32,5.16,0.72c0.8,0.19,1.74,0.53,2.4,1.21c1.74,1.8,1.77,5.48,2.01,7.96c0.15,1.54,4.79,0.39,4.93-0.99  c0.16-1.66,0.31-3.35,0.68-4.98c0.26-1.17,0.51-1.94,1.17-2.74c0.01-0.01,0.01-0.01,0.02-0.02c0.07-0.06,0.14-0.12,0.21-0.18  c0.11-0.06,0.23-0.13,0.34-0.19c-0.41,0.24-0.17,0.13,0.07,0.02c-0.3,0.15,0.41-0.14,0.62-0.19c0.06-0.01,0.12-0.03,0.18-0.04  c-0.02,0.01,0.33-0.07,0.41-0.08c0.37-0.06,0.73-0.12,1.1-0.17c0.96-0.13,1.93-0.23,2.9-0.32c0.84-0.08,2.15-0.51,2.64-1.28  C31.16,81.75,30.72,81.16,29.99,81.09z M15.24,82.06c0.83-0.36,1.61-0.81,2.28-1.41c0.13,0.17,0.25,0.34,0.41,0.49  c0.74,0.72,1.67,1.19,2.68,1.54c-0.81,0.37-1.56,0.84-2.23,1.43c-0.13-0.17-0.25-0.34-0.41-0.49  C17.21,82.89,16.27,82.41,15.24,82.06z M22.95,84.45c0.06-0.03,0.12-0.06,0.16-0.08C23.04,84.41,22.99,84.43,22.95,84.45z"/></svg>

