<svg xmlns="http://www.w3.org/2000/svg" xmlns:xlink="http://www.w3.org/1999/xlink" version="1.1" x="0px" y="0px" viewBox="0 0 100 125" enable-background="new 0 0 100 100" xml:space="preserve"><path d="M83.438,49c-3.988-0.157-7.939-0.655-11.746-1.479c-0.628-0.136-1.254-0.278-1.876-0.431  c-8.163-2.013-13.195-6.12-15.837-12.927C51.51,27.801,51.161,20.72,51,13.417c-0.012-0.543-0.456-0.978-1-0.978  c-0.544,0-0.988,0.435-1,0.979c-0.161,7.301-0.509,14.382-2.979,20.745c-2.642,6.807-7.674,10.914-15.836,12.927  c-0.624,0.152-1.25,0.295-1.877,0.431C24.5,48.345,20.549,48.843,16.562,49c-0.536,0.021-0.96,0.462-0.96,0.999  s0.424,0.978,0.96,0.999c3.989,0.158,7.941,0.656,11.746,1.48c0.626,0.136,1.253,0.276,1.876,0.431  c8.163,2.013,13.195,6.12,15.837,12.927C48.491,72.199,48.84,79.28,49,86.582c0.012,0.544,0.456,0.979,1,0.979  c0.543,0,0.988-0.435,1-0.978c0.161-7.304,0.51-14.385,2.98-20.746c2.642-6.807,7.674-10.914,15.837-12.927  c0.623-0.154,1.249-0.295,1.876-0.431c3.804-0.824,7.756-1.322,11.745-1.48c0.537-0.021,0.96-0.462,0.96-0.999  S83.975,49.021,83.438,49z M71.27,50.524c-0.646,0.14-1.291,0.286-1.932,0.444c-8.852,2.183-14.324,6.677-17.223,14.144  c-0.996,2.566-1.663,5.223-2.115,7.946c-0.453-2.724-1.119-5.38-2.115-7.946c-2.898-7.467-8.371-11.961-17.222-14.144  c-0.642-0.158-1.287-0.305-1.933-0.444c-0.886-0.191-1.78-0.366-2.681-0.523c0.9-0.158,1.794-0.333,2.681-0.524  c0.646-0.14,1.29-0.286,1.932-0.444c8.851-2.183,14.324-6.677,17.223-14.144c0.997-2.567,1.663-5.224,2.115-7.947  c0.452,2.724,1.119,5.381,2.115,7.947c2.899,7.467,8.372,11.961,17.224,14.144c0.641,0.158,1.286,0.305,1.931,0.444  c0.886,0.191,1.78,0.366,2.68,0.523C73.05,50.158,72.156,50.333,71.27,50.524z"/></svg>

